<svg id="Layer_2" data-name="Layer 2" xmlns="http://www.w3.org/2000/svg" viewBox="0 0 5000 5000"><defs><style>.cls-1{fill:#4285f4;}.cls-2{fill:#fbbc05;}.cls-3{fill:#ea4335;}.cls-4{fill:#34a853;}</style></defs><title>Logo</title><path class="cls-1" d="M232,1723H2077a742.4,742.4,0,0,1,226.42,46.12s-117,60.8-117,228.53A101,101,0,0,0,2164,1980a104.68,104.68,0,0,0-53.1-13.8H366.18Z"/><path class="cls-2" d="M3080,1997.65h325s46.13,276-234.81,344.53L3463.7,2635H3080l-190.79-239H2446.87l190.79-230.62h341.73a144.92,144.92,0,0,0,56.09-6.81c4.92-1.64,77.1-26.7,84.38-81.94,2.47-18.71-3.36-34.45-5.59-39.84C3104.64,2013.53,3086.74,2001.65,3080,1997.65Z"/><path class="cls-1" d="M884,2041.65h325s46.13,276-234.81,344.53L1267.7,2679H884L693.24,2440H250.87l190.79-230.62H783.39a144.92,144.92,0,0,0,56.09-6.81c4.92-1.64,77.1-26.7,84.38-81.94,2.47-18.71-3.36-34.45-5.59-39.84C908.64,2057.53,890.74,2045.65,884,2041.65Z"/><path class="cls-3" d="M1318,2165.37V2635h283V2400.19H2118.9s301.2,17.47,380.87-234.82A586.11,586.11,0,0,0,2515,2002c-.45-2.15-2.55-13.17,4.34-23.22,6.29-9.18,17.65-14,29.35-12.58h689l174-233.42h-863c-82.54.3-137.17,27.22-163.53,43-74,44.25-154.76,137.8-163.53,246.35-3.79,46.92,6.59,87.79-22.78,116.11-18.77,18.11-43.85,27.15-79.95,27.15H1318Z"/><path class="cls-4" d="M4727.05,2342.18c0,241.8-274.65,292.82-274.65,292.82h-956l176.11-232.72L4400,2396s52.41-13.28,52.41-60.8c0-38.91-32.33-57.67-44-63.19-2.6-1.23-4.18-1.8-4.18-1.8H3825.63c-7.54-1-17.22-2.54-28.38-4.86-78.13-16.2-228.88-70.68-228.88-249.82,0-152.73,147.75-289.2,274.65-292.82,7-.2,12.88,0,17,.3l939.05-.3-176.11,232.72-727.51,6.29c-30.33,7.73-51.57,33.28-52.41,60.8-1.24,40.48,42.34,62.46,44,63.19l4.18,1.8h578.55c7.54,1,17.22,2.54,28.38,4.86C4576.3,2108.56,4727.05,2163,4727.05,2342.18Z"/></svg>